<svg width="67" height="114" xmlns="http://www.w3.org/2000/svg"><g fill-rule="nonzero" stroke="#000" fill="none"><path d="M18.961 68.019c-2.4 12.994-5.022 21.618-9.201 22.936-9.207-2.114-13.338-27.278-.522-32.149 3.048-.675 5.718-.06 7.785 1.43-4.923-33.31-.324-60.321 9.375-59.042 9.504 1.899 5.949 27.108-3.984 54.17.792 10.167 4.281 25.06 7.668 31.872a.123.123 0 00.21 0c1.422-2.019 3.351-9.945 5.19-16.85l1.383 1.962c-2.163 8.56-3.714 16.487-7.281 17.94-4.353-.015-7.827-8.055-10.623-22.27z" fill="#020000"/><path d="M16.993 63.79c.432 7.712-3.84 21.454-6.036 23.622-4.404-5.295-5.736-25.816.435-26.794 1.422-.23 4.473-.039 5.601 3.173z" fill="#F9F9F9"/><path d="M21.754 51.409c7.767-21.528 11.367-44.895 5.202-47.918a.83.83 0 00-1.041.263c-7.251 10.235-7.05 28.602-4.161 47.655z" fill="#F7F5F5"/><g><path d="M40.773 111.795l-3.39-13.219c-2.851 5.57-5.607 10.672-8.037 14.102-.804.238-1.196-.082-1.328-1.32 2.094-2.68 5.386-9.162 8.641-15.75-7.761-34.534-12.788-63.348 4.934-69.89 21.026-6.143 8.034 50.214-.984 65.81l1.795 7.214c1.388-18.398 16.424-27.045 16.843-5.177l6.562-3.415V92.3l-6.452 3.58c-1.89 9.225-5.053 14.526-9.847 14.803a1.173 1.173 0 01-.787-.235c-3.312-2.57-.299-8.887 5.44-13.41.207-24.005-9-12.025-10.664 6.328l1.368 4.846c-.303 2.559-1.694 3.722-4.094 3.584z" fill="#020000"/><path d="M39.67 88.42c-6.251-23.745-3.971-56.38 5.9-60.575 10.697 2.498 3.973 38.295-5.9 60.575z" fill="#F9F9F9"/><path d="M53.732 100.156c-2.516 2.082-5.386 5.864-4.114 8.369a.547.547 0 00.542.301c2.034-.235 3.991-5.678 3.967-8.49a.244.244 0 00-.142-.213.241.241 0 00-.253.033z" fill="#FCFAFA"/></g></g></svg>