<svg width="44" height="44" xmlns="http://www.w3.org/2000/svg"><g fill="#000" fill-rule="nonzero"><path d="M32.19 19.565c-3.426 0-3.904 3.42-3.904 3.42h7.287s.043-3.42-3.383-3.42zM15.659 22.985H9.202v5.929h6.158c.927-.026 2.637-.317 2.637-2.88 0-3.079-2.338-3.049-2.338-3.049zM17.227 16.923c0-2.308-1.569-2.308-1.569-2.308H9.202v4.95h6.056c1.047 0 1.97-.334 1.97-2.642z"/><path d="M41.66 0H2.34A2.34 2.34 0 000 2.34v39.32A2.34 2.34 0 002.34 44h39.32A2.34 2.34 0 0044 41.66V2.34A2.34 2.34 0 0041.66 0zM27.33 11.98h9.152v2.732H27.33V11.98zM22.704 26.31c0 6.77-7.046 6.546-7.046 6.546H4.116V10.674h11.543c3.507 0 6.276 1.936 6.276 5.906 0 3.969-3.384 4.22-3.384 4.22 4.462 0 4.153 5.509 4.153 5.509zm17.12-.363H28.33c0 4.121 3.904 3.86 3.904 3.86 3.687 0 3.557-2.386 3.557-2.386h3.904c0 6.333-7.59 5.9-7.59 5.9-9.11 0-8.524-8.48-8.524-8.48s-.008-8.523 8.523-8.523c8.979 0 7.721 9.629 7.721 9.629z"/></g></svg>