<?xml version="1.0" encoding="UTF-8"?>
<svg width="44px" height="44px" viewBox="0 0 44 44" version="1.1" xmlns="http://www.w3.org/2000/svg" xmlns:xlink="http://www.w3.org/1999/xlink">
    <!-- Generator: sketchtool 55.2 (78181) - https://sketchapp.com -->
    <title>887B6B19-7342-4A87-9022-9831088DA7A0</title>
    <desc>Created with sketchtool.</desc>
    <g id="Page-1" stroke="none" stroke-width="1" fill="none" fill-rule="evenodd">
        <g id="HOME-Copy" transform="translate(-1150.000000, -4184.000000)" fill="#000000" fill-rule="nonzero">
            <g id="Group-7" transform="translate(0.000000, 4030.000000)">
                <g id="linkedin-logo" transform="translate(1150.000000, 154.000000)">
                    <path d="M39.6,0 L4.4,0 C1.98,0 0,1.98 0,4.4 L0,39.6 C0,42.02 1.98,44 4.4,44 L39.6,44 C42.02,44 44,42.02 44,39.6 L44,4.4 C44,1.98 42.02,0 39.6,0 Z M13.2,37.4 L6.6,37.4 L6.6,17.6 L13.2,17.6 L13.2,37.4 Z M9.9,13.86 C7.7,13.86 5.94,12.1 5.94,9.9 C5.94,7.7 7.7,5.94 9.9,5.94 C12.1,5.94 13.86,7.7 13.86,9.9 C13.86,12.1 12.1,13.86 9.9,13.86 Z M37.4,37.4 L30.8,37.4 L30.8,25.74 C30.8,23.9800863 29.26,22.44 27.5,22.44 C25.74,22.44 24.2,23.9800863 24.2,25.74 L24.2,37.4 L17.6,37.4 L17.6,17.6 L24.2,17.6 L24.2,20.24 C25.3,18.48 27.72,17.16 29.7,17.16 C33.88,17.16 37.4,20.68 37.4,24.86 L37.4,37.4 Z" id="Shape"></path>
                </g>
            </g>
        </g>
    </g>
</svg>