<svg width="400" height="400" fill="none" xmlns="http://www.w3.org/2000/svg"><path fill="#2C4285" d="M0 0h400v400H0z"/><path d="M25 225.994v-53.642h22.498c7.59.082 14.908.482 19.99 7.305 1.423 1.925 3.388 5.462 3.388 11.398 0 7.468-3.253 11.961-5.489 14.054-3.998 4.005-9.351 4.412-14.637 4.656h-9.825v16.229H25zm22.023-28.671c2.643-.067 5.625-.21 7.522-2.141a5.038 5.038 0 001.423-3.578c-.068-1.85-.88-3.002-1.355-3.571-2.304-2.501-6.031-2.216-9.08-2.216h-4.405v11.506h5.895zM96.694 226.055l-.61-3.571c-2.033 1.592-5.76 4.71-12.468 4.71-1.152 0-6.167-.156-9.623-3.036-1.49-1.295-4.066-4.412-4.066-9.568 0-1.22.34-3.294 2.304-5.876 2.779-3.72 6.1-4.73 10.368-5.726l7.183-.894a22.243 22.243 0 012.643-.603c.203-.082 1.355-.237 1.965-.691.61-.454 1.084-2.203 1.084-3.043 0-1.518-1.965-2.758-5.014-2.758-2.71 0-3.998.983-4.676 1.972-.339.528-.474.983-.542 2.202l-13.62-.081c.61-3.11 1.22-5.618 3.456-8.199 2.778-3.118 7.182-5.09 15.788-5.09 1.627 0 8.268-.684 13.147 2.582 1.965 1.295 3.252 2.819 4.133 4.866 1.491 3.191 1.084 7.054 1.084 10.401v10.707c-.067 6.682.407 7.895 1.627 11.696H96.694zm-1.423-17.225c-1.965.684-3.998 1.294-6.03 1.978l-1.492.454c-.745.149-3.049.651-3.049 3.538 0 1.294.745 3.645 3.727 3.645.407 0 2.236-.176 3.185-.481 2.71-.759 2.914-2.521 3.66-3.286v-5.848zM137.691 226.096v-19.001c0 2.263.61-7.42-1.423-8.376-.677-.332-1.965-.989-3.524-.955-1.761.034-3.727.888-4.404 2.453-.746 1.911-1.017 3.666-.949 7.644v18.248h-14.637v-39.33h13.824l.203 4.568c1.898-2.325 4.134-5.327 12.265-5.327 5.964 0 10.504 2.081 12.334 8.118.406 1.525.609 3.002.745 6.133v25.825h-14.434zM219.008 198.143c-.271-1.497-1.355-3.977-5.082-3.977-1.627 0-2.847.44-3.456.82-.339.142-.881 1.124-.881 2.249 0 .298.271 1.193 1.152 1.721.542.305 1.829.678 3.32.848l5.76 1.497c4.066 1.03 7.59 1.755 10.436 4.601 1.423 1.349 2.168 3.097 2.371 3.809.678 2.032.339 3.625.339 4.303 0 4.635-2.236 7.427-3.524 8.626-2.778 2.548-7.182 4.472-15.246 4.472-6.709 0-10.91-1.762-13.418-3.218-5.353-3.104-5.624-8.817-5.963-10.612l13.96-.048c.135 1.349.338 2.358 1.423 3.327.88.827 1.829 1.396 4.336 1.396 2.982 0 4.676-1.436 4.744-2.744.068-.156.068-1.206-.339-1.728-.678-1.125-2.507-1.599-5.15-2.277 0 0-8.132-1.748-8.741-2.04-1.83-.84-9.216-2.5-9.216-10.74 0-4.635 2.371-7.109 3.727-8.382 2.507-2.176 6.64-4.195 14.027-4.195 1.626 0 8.538-.075 13.688 3.449a11.874 11.874 0 013.456 3.592c1.22 2.019 1.423 4.431 1.559 5.251h-13.282zM269.356 221.596c-2.372 2.406-7.251 5.564-15.314 5.564-2.576 0-9.691-.149-14.909-6.316-2.168-2.629-4.811-6.993-4.811-14.82 0-1.355 0-4.438 1.288-7.82 2.914-8.572 10.842-12.482 19.177-12.407 2.236 0 9.216.223 14.23 5.339 2.508 2.555 5.692 7.217 5.625 15.491 0 2.026-.136 9.704-5.286 14.969zm-10.842-23.744c-1.288-1.206-3.253-1.45-3.93-1.45-1.694 0-2.914.982-3.321 1.28-1.762 1.43-3.049 3.606-3.049 8.491 0 3.836.881 10.253 6.302 10.253 1.558 0 3.049-.407 3.998-1.532 1.287-1.429 2.643-4.011 2.575-8.524 0-.224.068-5.814-2.575-8.518zM319.027 186.651h14.366v39.513h-14.366v-39.513zm0-14.651h14.366v10.28h-14.366V172zM361.041 201.762c-1.085-4.744-3.389-4.981-5.964-4.981-2.1 0-2.778.712-3.456 1.301-1.829 1.559-2.439 3.49-2.439 8.308 0 .366-.203 6.804 3.32 9.25 1.017.671 1.491.711 2.711.711.406 0 1.626.041 2.71-.474 1.423-.664 2.914-1.884 3.185-5.225l13.892-.115c-.136.895-.678 4.046-2.033 6.641-3.456 6.892-10.503 9.765-17.619 9.765-2.913 0-4.946-.441-6.166-.664-5.624-1.41-10.571-5.34-12.74-10.971-.61-1.701-1.423-4.296-1.423-8.599 0-1.776.068-6.37 2.575-10.965.339-.738 1.491-2.595 3.117-4.296 5.286-5.191 13.147-5.34 15.044-5.34 7.319 0 11.859 2.745 14.095 4.818.678.671 2.033 2.46 3.117 4.906.881 2 1.355 3.782 1.694 5.93h-13.62zM193.461 214.569v-10.686c0-3.341 0-7.834-1.423-11.019-.949-2.053-1.627-3.191-3.592-4.479-4.879-3.266-12.062-2.649-13.688-2.649-8.606 0-13.011 2.27-15.789 5.387-2.236 2.582-2.71 5.109-3.32 8.226h13.62c.068-1.219.271-1.673.542-2.209.746-.982 1.83-2.222 4.54-2.222 3.05 0 5.015 1.552 5.015 3.069 0 .834-.068 2.196-.678 2.65-.61.461-2.168 1.003-2.439 1.077-.678.116-1.559.319-2.643.604l-7.115.901c-4.269.989-7.59 1.857-10.368 5.577-2.033 2.582-2.033 4.94-2.033 6.153 0 5.163 2.236 8.145 3.727 9.439 3.456 2.88 8.403 2.772 9.623 2.772 6.708 0 10.232-2.948 12.333-4.54l.609 3.727h14.705c-.813-2.582-1.694-3.931-1.626-11.778zm-17.958 3.626c-.948.305-2.575.237-2.981.216-2.44-.162-3.727-2.385-3.727-3.679 0-2.887 2.304-3.354 3.049-3.504l1.559-.433c1.965-.685 3.998-1.261 5.963-1.945l.068 5.021c-.61 1.132-1.288 3.565-3.931 4.324zM301.68 226.021v-19.123c0 2.264.677-7.298-1.356-8.26-.677-.319-1.965-.983-3.456-.949-1.761.034-3.794.888-4.404 2.453-.813 1.911-1.22 3.212-1.152 7.183l-.136 18.771-14.298-.061v-39.33h13.756l.204 4.567c1.897-2.324 4.133-5.326 12.333-5.326 5.895 0 10.435 2.507 12.265 8.545.406 1.525.474 2.521.677 5.651v25.893l-14.433-.014z" fill="#fff"/></svg>